# xmcd
# 
# Track frame offsets:
#     150
#     25997
#     47435
# 
# Disc length: 975
# 
# Revision: 1
# Processed by: cddbd v1.5.2PL0 Copyright (c) Steve Scherf et al.
# Submitted via: fre:ac v1.0.17
# 
DISCID=1a03cd03
DTITLE=THE ALFEE - LOVE NEVER DIES
DYEAR=1996
DGENRE=JPop
TTITLE0=LOVE NEVER DIES
TTITLE1=GLORY DAYS
TTITLE2=LOVE NEVER DIES(オリジナルカラオケ)
EXTD=
EXTT0=
EXTT1=
EXTT2=
PLAYORDER=
